<mxfile host="drawio-plugin" modified="2023-09-19T13:32:32.610Z" agent="5.0 (Macintosh; Intel Mac OS X 12_6_0) AppleWebKit/537.36 (KHTML, like Gecko) Chrome/89.0.4389.114 Safari/537.36" version="20.5.3" etag="pGSRU8-ejtsbUH2S0XRi" type="embed"><diagram id="hmhni4TK3Tv54CKzOb7Y" name="Page-1"><mxGraphModel dx="760" dy="574" grid="1" gridSize="10" guides="1" tooltips="1" connect="1" arrows="1" fold="1" page="1" pageScale="1" pageWidth="850" pageHeight="1100" math="0" shadow="0"><root><mxCell id="0"/><mxCell id="1" parent="0"/><mxCell id="2" value="API" style="rounded=0;whiteSpace=wrap;html=1;" vertex="1" parent="1"><mxGeometry x="120" y="150" width="120" height="60" as="geometry"/></mxCell><mxCell id="3" value="Helpers" style="rounded=0;whiteSpace=wrap;html=1;" vertex="1" parent="1"><mxGeometry x="320" y="140" width="120" height="60" as="geometry"/></mxCell><mxCell id="4" value="DataBase" style="rounded=0;whiteSpace=wrap;html=1;" vertex="1" parent="1"><mxGeometry x="320" y="50" width="120" height="60" as="geometry"/></mxCell><mxCell id="5" value="Data" style="rounded=0;whiteSpace=wrap;html=1;" vertex="1" parent="1"><mxGeometry x="120" y="410" width="120" height="60" as="geometry"/></mxCell><mxCell id="6" value="DB" style="rounded=0;whiteSpace=wrap;html=1;" vertex="1" parent="1"><mxGeometry x="120" y="540" width="120" height="60" as="geometry"/></mxCell><mxCell id="7" value="Routers" style="rounded=0;whiteSpace=wrap;html=1;" vertex="1" parent="1"><mxGeometry x="320" y="240" width="120" height="60" as="geometry"/></mxCell><mxCell id="9" value="" style="endArrow=none;html=1;rounded=0;" edge="1" parent="1"><mxGeometry width="50" height="50" relative="1" as="geometry"><mxPoint x="280" y="360" as="sourcePoint"/><mxPoint x="280" y="80" as="targetPoint"/></mxGeometry></mxCell><mxCell id="10" value="" style="endArrow=classic;html=1;rounded=0;entryX=-0.025;entryY=0.65;entryDx=0;entryDy=0;entryPerimeter=0;" edge="1" parent="1" target="7"><mxGeometry width="50" height="50" relative="1" as="geometry"><mxPoint x="280" y="280" as="sourcePoint"/><mxPoint x="410" y="270" as="targetPoint"/></mxGeometry></mxCell><mxCell id="12" value="" style="endArrow=classic;html=1;rounded=0;" edge="1" parent="1"><mxGeometry width="50" height="50" relative="1" as="geometry"><mxPoint x="280" y="180" as="sourcePoint"/><mxPoint x="320" y="180" as="targetPoint"/></mxGeometry></mxCell><mxCell id="13" value="" style="endArrow=classic;html=1;rounded=0;entryX=0;entryY=0.5;entryDx=0;entryDy=0;" edge="1" parent="1" target="4"><mxGeometry width="50" height="50" relative="1" as="geometry"><mxPoint x="280" y="80" as="sourcePoint"/><mxPoint x="337" y="299" as="targetPoint"/></mxGeometry></mxCell><mxCell id="14" value="DockerFile" style="rounded=0;whiteSpace=wrap;html=1;" vertex="1" parent="1"><mxGeometry x="320" y="320" width="120" height="60" as="geometry"/></mxCell><mxCell id="15" value="" style="endArrow=classic;html=1;rounded=0;" edge="1" parent="1"><mxGeometry width="50" height="50" relative="1" as="geometry"><mxPoint x="280" y="360" as="sourcePoint"/><mxPoint x="320" y="360" as="targetPoint"/></mxGeometry></mxCell><mxCell id="16" value="DockerFile" style="rounded=0;whiteSpace=wrap;html=1;" vertex="1" parent="1"><mxGeometry x="320" y="540" width="120" height="60" as="geometry"/></mxCell><mxCell id="18" value="" style="endArrow=classic;html=1;rounded=0;" edge="1" parent="1" source="6"><mxGeometry width="50" height="50" relative="1" as="geometry"><mxPoint x="360" y="620" as="sourcePoint"/><mxPoint x="320" y="570" as="targetPoint"/></mxGeometry></mxCell><mxCell id="19" value="Docker Compose.yaml" style="whiteSpace=wrap;html=1;" vertex="1" parent="1"><mxGeometry x="650" y="200" width="120" height="60" as="geometry"/></mxCell><mxCell id="20" value="" style="endArrow=none;html=1;rounded=0;exitX=1;exitY=0.5;exitDx=0;exitDy=0;" edge="1" parent="1" source="2"><mxGeometry width="50" height="50" relative="1" as="geometry"><mxPoint x="380" y="300" as="sourcePoint"/><mxPoint x="280" y="180" as="targetPoint"/></mxGeometry></mxCell></root></mxGraphModel></diagram></mxfile>